<?xml version="1.0" encoding="utf-8" standalone="no"?>
<!DOCTYPE svg PUBLIC "-//W3C//DTD SVG 1.1//EN"
  "http://www.w3.org/Graphics/SVG/1.1/DTD/svg11.dtd">
<svg xmlns:xlink="http://www.w3.org/1999/xlink" width="712.7725pt" height="423.43625pt" viewBox="0 0 712.7725 423.43625" xmlns="http://www.w3.org/2000/svg" version="1.1">
 <metadata>
  <rdf:RDF xmlns:dc="http://purl.org/dc/elements/1.1/" xmlns:cc="http://creativecommons.org/ns#" xmlns:rdf="http://www.w3.org/1999/02/22-rdf-syntax-ns#">
   <cc:Work>
    <dc:type rdf:resource="http://purl.org/dc/dcmitype/StillImage"/>
    <dc:date>2025-11-22T12:39:50.028022</dc:date>
    <dc:format>image/svg+xml</dc:format>
    <dc:creator>
     <cc:Agent>
      <dc:title>Matplotlib v3.10.7, https://matplotlib.org/</dc:title>
     </cc:Agent>
    </dc:creator>
   </cc:Work>
  </rdf:RDF>
 </metadata>
 <defs>
  <style type="text/css">*{stroke-linejoin: round; stroke-linecap: butt}</style>
 </defs>
 <g id="figure_1">
  <g id="patch_1">
   <path d="M 0 423.43625 
L 712.7725 423.43625 
L 712.7725 0 
L 0 0 
z
" style="fill: #ffffff"/>
  </g>
  <g id="axes_1">
   <g id="patch_2">
    <path d="M 20.5625 399.558125 
L 705.5725 399.558125 
L 705.5725 22.318125 
L 20.5625 22.318125 
z
" style="fill: #ffffff"/>
   </g>
   <g id="matplotlib.axis_1">
    <g id="xtick_1">
     <g id="line2d_1">
      <path d="M 26.314473 399.558125 
L 26.314473 22.318125 
" clip-path="url(#pb34a06767c)" style="fill: none; stroke: #b0b0b0; stroke-opacity: 0.25; stroke-width: 0.8; stroke-linecap: square"/>
     </g>
     <g id="line2d_2">
      <defs>
       <path id="mc89a813fe9" d="M 0 0 
L 0 3.5 
" style="stroke: #000000; stroke-width: 0.8"/>
      </defs>
      <g>
       <use xlink:href="#mc89a813fe9" x="26.314473" y="399.558125" style="stroke: #000000; stroke-width: 0.8"/>
      </g>
     </g>
     <g id="text_1">
      <!-- 0 -->
      <g transform="translate(23.133223 414.156563) scale(0.1 -0.1)">
       <defs>
        <path id="DejaVuSans-30" d="M 2034 4250 
Q 1547 4250 1301 3770 
Q 1056 3291 1056 2328 
Q 1056 1369 1301 889 
Q 1547 409 2034 409 
Q 2525 409 2770 889 
Q 3016 1369 3016 2328 
Q 3016 3291 2770 3770 
Q 2525 4250 2034 4250 
z
M 2034 4750 
Q 2819 4750 3233 4129 
Q 3647 3509 3647 2328 
Q 3647 1150 3233 529 
Q 2819 -91 2034 -91 
Q 1250 -91 836 529 
Q 422 1150 422 2328 
Q 422 3509 836 4129 
Q 1250 4750 2034 4750 
z
" transform="scale(0.015625)"/>
       </defs>
       <use xlink:href="#DejaVuSans-30"/>
      </g>
     </g>
    </g>
    <g id="xtick_2">
     <g id="line2d_3">
      <path d="M 150.921752 399.558125 
L 150.921752 22.318125 
" clip-path="url(#pb34a06767c)" style="fill: none; stroke: #b0b0b0; stroke-opacity: 0.25; stroke-width: 0.8; stroke-linecap: square"/>
     </g>
     <g id="line2d_4">
      <g>
       <use xlink:href="#mc89a813fe9" x="150.921752" y="399.558125" style="stroke: #000000; stroke-width: 0.8"/>
      </g>
     </g>
     <g id="text_2">
      <!-- 5 -->
      <g transform="translate(147.740502 414.156563) scale(0.1 -0.1)">
       <defs>
        <path id="DejaVuSans-35" d="M 691 4666 
L 3169 4666 
L 3169 4134 
L 1269 4134 
L 1269 2991 
Q 1406 3038 1543 3061 
Q 1681 3084 1819 3084 
Q 2600 3084 3056 2656 
Q 3513 2228 3513 1497 
Q 3513 744 3044 326 
Q 2575 -91 1722 -91 
Q 1428 -91 1123 -41 
Q 819 9 494 109 
L 494 744 
Q 775 591 1075 516 
Q 1375 441 1709 441 
Q 2250 441 2565 725 
Q 2881 1009 2881 1497 
Q 2881 1984 2565 2268 
Q 2250 2553 1709 2553 
Q 1456 2553 1204 2497 
Q 953 2441 691 2322 
L 691 4666 
z
" transform="scale(0.015625)"/>
       </defs>
       <use xlink:href="#DejaVuSans-35"/>
      </g>
     </g>
    </g>
    <g id="xtick_3">
     <g id="line2d_5">
      <path d="M 275.52903 399.558125 
L 275.52903 22.318125 
" clip-path="url(#pb34a06767c)" style="fill: none; stroke: #b0b0b0; stroke-opacity: 0.25; stroke-width: 0.8; stroke-linecap: square"/>
     </g>
     <g id="line2d_6">
      <g>
       <use xlink:href="#mc89a813fe9" x="275.52903" y="399.558125" style="stroke: #000000; stroke-width: 0.8"/>
      </g>
     </g>
     <g id="text_3">
      <!-- 10 -->
      <g transform="translate(269.16653 414.156563) scale(0.1 -0.1)">
       <defs>
        <path id="DejaVuSans-31" d="M 794 531 
L 1825 531 
L 1825 4091 
L 703 3866 
L 703 4441 
L 1819 4666 
L 2450 4666 
L 2450 531 
L 3481 531 
L 3481 0 
L 794 0 
L 794 531 
z
" transform="scale(0.015625)"/>
       </defs>
       <use xlink:href="#DejaVuSans-31"/>
       <use xlink:href="#DejaVuSans-30" transform="translate(63.623047 0)"/>
      </g>
     </g>
    </g>
    <g id="xtick_4">
     <g id="line2d_7">
      <path d="M 400.136309 399.558125 
L 400.136309 22.318125 
" clip-path="url(#pb34a06767c)" style="fill: none; stroke: #b0b0b0; stroke-opacity: 0.25; stroke-width: 0.8; stroke-linecap: square"/>
     </g>
     <g id="line2d_8">
      <g>
       <use xlink:href="#mc89a813fe9" x="400.136309" y="399.558125" style="stroke: #000000; stroke-width: 0.8"/>
      </g>
     </g>
     <g id="text_4">
      <!-- 15 -->
      <g transform="translate(393.773809 414.156563) scale(0.1 -0.1)">
       <use xlink:href="#DejaVuSans-31"/>
       <use xlink:href="#DejaVuSans-35" transform="translate(63.623047 0)"/>
      </g>
     </g>
    </g>
    <g id="xtick_5">
     <g id="line2d_9">
      <path d="M 524.743587 399.558125 
L 524.743587 22.318125 
" clip-path="url(#pb34a06767c)" style="fill: none; stroke: #b0b0b0; stroke-opacity: 0.25; stroke-width: 0.8; stroke-linecap: square"/>
     </g>
     <g id="line2d_10">
      <g>
       <use xlink:href="#mc89a813fe9" x="524.743587" y="399.558125" style="stroke: #000000; stroke-width: 0.8"/>
      </g>
     </g>
     <g id="text_5">
      <!-- 20 -->
      <g transform="translate(518.381087 414.156563) scale(0.1 -0.1)">
       <defs>
        <path id="DejaVuSans-32" d="M 1228 531 
L 3431 531 
L 3431 0 
L 469 0 
L 469 531 
Q 828 903 1448 1529 
Q 2069 2156 2228 2338 
Q 2531 2678 2651 2914 
Q 2772 3150 2772 3378 
Q 2772 3750 2511 3984 
Q 2250 4219 1831 4219 
Q 1534 4219 1204 4116 
Q 875 4013 500 3803 
L 500 4441 
Q 881 4594 1212 4672 
Q 1544 4750 1819 4750 
Q 2544 4750 2975 4387 
Q 3406 4025 3406 3419 
Q 3406 3131 3298 2873 
Q 3191 2616 2906 2266 
Q 2828 2175 2409 1742 
Q 1991 1309 1228 531 
z
" transform="scale(0.015625)"/>
       </defs>
       <use xlink:href="#DejaVuSans-32"/>
       <use xlink:href="#DejaVuSans-30" transform="translate(63.623047 0)"/>
      </g>
     </g>
    </g>
    <g id="xtick_6">
     <g id="line2d_11">
      <path d="M 649.350866 399.558125 
L 649.350866 22.318125 
" clip-path="url(#pb34a06767c)" style="fill: none; stroke: #b0b0b0; stroke-opacity: 0.25; stroke-width: 0.8; stroke-linecap: square"/>
     </g>
     <g id="line2d_12">
      <g>
       <use xlink:href="#mc89a813fe9" x="649.350866" y="399.558125" style="stroke: #000000; stroke-width: 0.8"/>
      </g>
     </g>
     <g id="text_6">
      <!-- 25 -->
      <g transform="translate(642.988366 414.156563) scale(0.1 -0.1)">
       <use xlink:href="#DejaVuSans-32"/>
       <use xlink:href="#DejaVuSans-35" transform="translate(63.623047 0)"/>
      </g>
     </g>
    </g>
   </g>
   <g id="matplotlib.axis_2">
    <g id="ytick_1">
     <g id="line2d_13">
      <path d="M 20.5625 382.410852 
L 705.5725 382.410852 
" clip-path="url(#pb34a06767c)" style="fill: none; stroke: #b0b0b0; stroke-opacity: 0.25; stroke-width: 0.8; stroke-linecap: square"/>
     </g>
     <g id="line2d_14">
      <defs>
       <path id="mcf58619f93" d="M 0 0 
L -3.5 0 
" style="stroke: #000000; stroke-width: 0.8"/>
      </defs>
      <g>
       <use xlink:href="#mcf58619f93" x="20.5625" y="382.410852" style="stroke: #000000; stroke-width: 0.8"/>
      </g>
     </g>
     <g id="text_7">
      <!-- 0 -->
      <g transform="translate(7.2 386.210071) scale(0.1 -0.1)">
       <use xlink:href="#DejaVuSans-30"/>
      </g>
     </g>
    </g>
    <g id="ytick_2">
     <g id="line2d_15">
      <path d="M 20.5625 299.716045 
L 705.5725 299.716045 
" clip-path="url(#pb34a06767c)" style="fill: none; stroke: #b0b0b0; stroke-opacity: 0.25; stroke-width: 0.8; stroke-linecap: square"/>
     </g>
     <g id="line2d_16">
      <g>
       <use xlink:href="#mcf58619f93" x="20.5625" y="299.716045" style="stroke: #000000; stroke-width: 0.8"/>
      </g>
     </g>
     <g id="text_8">
      <!-- 2 -->
      <g transform="translate(7.2 303.515264) scale(0.1 -0.1)">
       <use xlink:href="#DejaVuSans-32"/>
      </g>
     </g>
    </g>
    <g id="ytick_3">
     <g id="line2d_17">
      <path d="M 20.5625 217.021238 
L 705.5725 217.021238 
" clip-path="url(#pb34a06767c)" style="fill: none; stroke: #b0b0b0; stroke-opacity: 0.25; stroke-width: 0.8; stroke-linecap: square"/>
     </g>
     <g id="line2d_18">
      <g>
       <use xlink:href="#mcf58619f93" x="20.5625" y="217.021238" style="stroke: #000000; stroke-width: 0.8"/>
      </g>
     </g>
     <g id="text_9">
      <!-- 4 -->
      <g transform="translate(7.2 220.820456) scale(0.1 -0.1)">
       <defs>
        <path id="DejaVuSans-34" d="M 2419 4116 
L 825 1625 
L 2419 1625 
L 2419 4116 
z
M 2253 4666 
L 3047 4666 
L 3047 1625 
L 3713 1625 
L 3713 1100 
L 3047 1100 
L 3047 0 
L 2419 0 
L 2419 1100 
L 313 1100 
L 313 1709 
L 2253 4666 
z
" transform="scale(0.015625)"/>
       </defs>
       <use xlink:href="#DejaVuSans-34"/>
      </g>
     </g>
    </g>
    <g id="ytick_4">
     <g id="line2d_19">
      <path d="M 20.5625 134.32643 
L 705.5725 134.32643 
" clip-path="url(#pb34a06767c)" style="fill: none; stroke: #b0b0b0; stroke-opacity: 0.25; stroke-width: 0.8; stroke-linecap: square"/>
     </g>
     <g id="line2d_20">
      <g>
       <use xlink:href="#mcf58619f93" x="20.5625" y="134.32643" style="stroke: #000000; stroke-width: 0.8"/>
      </g>
     </g>
     <g id="text_10">
      <!-- 6 -->
      <g transform="translate(7.2 138.125649) scale(0.1 -0.1)">
       <defs>
        <path id="DejaVuSans-36" d="M 2113 2584 
Q 1688 2584 1439 2293 
Q 1191 2003 1191 1497 
Q 1191 994 1439 701 
Q 1688 409 2113 409 
Q 2538 409 2786 701 
Q 3034 994 3034 1497 
Q 3034 2003 2786 2293 
Q 2538 2584 2113 2584 
z
M 3366 4563 
L 3366 3988 
Q 3128 4100 2886 4159 
Q 2644 4219 2406 4219 
Q 1781 4219 1451 3797 
Q 1122 3375 1075 2522 
Q 1259 2794 1537 2939 
Q 1816 3084 2150 3084 
Q 2853 3084 3261 2657 
Q 3669 2231 3669 1497 
Q 3669 778 3244 343 
Q 2819 -91 2113 -91 
Q 1303 -91 875 529 
Q 447 1150 447 2328 
Q 447 3434 972 4092 
Q 1497 4750 2381 4750 
Q 2619 4750 2861 4703 
Q 3103 4656 3366 4563 
z
" transform="scale(0.015625)"/>
       </defs>
       <use xlink:href="#DejaVuSans-36"/>
      </g>
     </g>
    </g>
    <g id="ytick_5">
     <g id="line2d_21">
      <path d="M 20.5625 51.631623 
L 705.5725 51.631623 
" clip-path="url(#pb34a06767c)" style="fill: none; stroke: #b0b0b0; stroke-opacity: 0.25; stroke-width: 0.8; stroke-linecap: square"/>
     </g>
     <g id="line2d_22">
      <g>
       <use xlink:href="#mcf58619f93" x="20.5625" y="51.631623" style="stroke: #000000; stroke-width: 0.8"/>
      </g>
     </g>
     <g id="text_11">
      <!-- 8 -->
      <g transform="translate(7.2 55.430842) scale(0.1 -0.1)">
       <defs>
        <path id="DejaVuSans-38" d="M 2034 2216 
Q 1584 2216 1326 1975 
Q 1069 1734 1069 1313 
Q 1069 891 1326 650 
Q 1584 409 2034 409 
Q 2484 409 2743 651 
Q 3003 894 3003 1313 
Q 3003 1734 2745 1975 
Q 2488 2216 2034 2216 
z
M 1403 2484 
Q 997 2584 770 2862 
Q 544 3141 544 3541 
Q 544 4100 942 4425 
Q 1341 4750 2034 4750 
Q 2731 4750 3128 4425 
Q 3525 4100 3525 3541 
Q 3525 3141 3298 2862 
Q 3072 2584 2669 2484 
Q 3125 2378 3379 2068 
Q 3634 1759 3634 1313 
Q 3634 634 3220 271 
Q 2806 -91 2034 -91 
Q 1263 -91 848 271 
Q 434 634 434 1313 
Q 434 1759 690 2068 
Q 947 2378 1403 2484 
z
M 1172 3481 
Q 1172 3119 1398 2916 
Q 1625 2713 2034 2713 
Q 2441 2713 2670 2916 
Q 2900 3119 2900 3481 
Q 2900 3844 2670 4047 
Q 2441 4250 2034 4250 
Q 1625 4250 1398 4047 
Q 1172 3844 1172 3481 
z
" transform="scale(0.015625)"/>
       </defs>
       <use xlink:href="#DejaVuSans-38"/>
      </g>
     </g>
    </g>
   </g>
   <g id="line2d_23">
    <path d="M 51.944246 382.410852 
L 80.121765 382.410852 
L 107.227661 382.410852 
L 133.906329 382.410852 
L 159.330026 382.410852 
L 192.256652 156.262799 
L 221.003302 156.262799 
L 250.562865 156.262799 
L 283.120355 156.262799 
L 319.371827 156.262799 
L 347.674775 156.262799 
L 374.386514 63.225187 
L 400.647224 63.225187 
L 426.437865 63.225187 
L 456.080192 63.225187 
L 486.938885 209.43585 
L 513.430119 209.43585 
L 539.210318 209.43585 
L 566.132792 209.43585 
L 591.557861 209.43585 
L 618.635795 147.047993 
L 646.091912 147.047993 
L 674.435682 147.047993 
" clip-path="url(#pb34a06767c)" style="fill: none; stroke: #1f77b4; stroke-width: 2; stroke-linecap: square"/>
   </g>
   <g id="line2d_24">
    <path d="M 51.944246 134.32643 
L 80.121765 134.32643 
L 107.227661 134.32643 
L 133.906329 134.32643 
L 159.330026 134.32643 
L 192.256652 134.32643 
L 221.003302 134.32643 
L 250.562865 134.32643 
L 283.120355 134.32643 
L 319.371827 134.32643 
L 347.674775 134.32643 
L 374.386514 134.32643 
L 400.647224 134.32643 
L 426.437865 134.32643 
L 456.080192 134.32643 
L 486.938885 134.32643 
L 513.430119 134.32643 
L 539.210318 134.32643 
L 566.132792 134.32643 
L 591.557861 134.32643 
L 618.635795 134.32643 
L 646.091912 134.32643 
L 674.435682 134.32643 
" clip-path="url(#pb34a06767c)" style="fill: none; stroke-dasharray: 5.55,2.4; stroke-dashoffset: 0; stroke: #1f77b4; stroke-width: 1.5"/>
   </g>
   <g id="line2d_25">
    <path d="M 52.564192 382.410852 
L 78.230675 382.410852 
L 105.740025 382.410852 
L 135.752236 382.410852 
L 161.592272 382.410852 
L 187.849742 382.410852 
L 219.112661 106.961354 
L 245.269922 106.961354 
L 272.04825 106.961354 
L 300.808308 106.961354 
L 327.512869 106.961354 
L 355.437285 106.961354 
L 383.299797 106.961354 
L 412.927221 39.465398 
L 443.38428 39.465398 
L 473.801266 39.465398 
L 500.09552 39.465398 
L 531.71671 39.465398 
L 559.229026 39.465398 
L 587.15561 105.890332 
L 614.66339 105.890332 
L 644.283387 271.046913 
L 670.515337 343.615452 
" clip-path="url(#pb34a06767c)" style="fill: none; stroke: #ff7f0e; stroke-width: 2; stroke-linecap: square"/>
   </g>
   <g id="line2d_26">
    <path d="M 52.564192 134.32643 
L 78.230675 134.32643 
L 105.740025 134.32643 
L 135.752236 134.32643 
L 161.592272 134.32643 
L 187.849742 134.32643 
L 219.112661 134.32643 
L 245.269922 134.32643 
L 272.04825 134.32643 
L 300.808308 134.32643 
L 327.512869 134.32643 
L 355.437285 134.32643 
L 383.299797 134.32643 
L 412.927221 134.32643 
L 443.38428 134.32643 
L 473.801266 134.32643 
L 500.09552 134.32643 
L 531.71671 134.32643 
L 559.229026 134.32643 
L 587.15561 134.32643 
L 614.66339 134.32643 
L 644.283387 140.342132 
L 670.515337 117.394333 
" clip-path="url(#pb34a06767c)" style="fill: none; stroke-dasharray: 5.55,2.4; stroke-dashoffset: 0; stroke: #ff7f0e; stroke-width: 1.5"/>
   </g>
   <g id="line2d_27">
    <path d="M 51.699318 382.410852 
L 77.589994 382.410852 
L 102.901994 382.410852 
L 128.443645 382.410852 
L 153.743558 382.410852 
L 179.047458 382.410852 
L 205.021447 115.500751 
L 231.424234 339.892366 
L 257.255946 339.892366 
L 284.062685 339.892366 
L 310.364316 339.892366 
L 336.607406 339.892366 
L 362.644969 145.321077 
L 388.504718 145.321077 
L 414.657891 145.321077 
L 440.705947 145.321077 
L 466.433586 145.321077 
L 491.938304 145.321077 
L 517.458498 145.321077 
L 543.292278 145.321077 
L 569.007058 145.321077 
L 594.507813 145.321077 
L 620.899884 145.321077 
L 647.0555 145.321077 
L 673.130296 145.321077 
" clip-path="url(#pb34a06767c)" style="fill: none; stroke: #2ca02c; stroke-width: 2; stroke-linecap: square"/>
   </g>
   <g id="line2d_28">
    <path d="M 51.699318 134.32643 
L 77.589994 134.32643 
L 102.901994 134.32643 
L 128.443645 134.32643 
L 153.743558 134.32643 
L 179.047458 134.32643 
L 205.021447 134.32643 
L 231.424234 134.32643 
L 257.255946 134.32643 
L 284.062685 134.32643 
L 310.364316 134.32643 
L 336.607406 134.32643 
L 362.644969 134.32643 
L 388.504718 134.32643 
L 414.657891 134.32643 
L 440.705947 134.32643 
L 466.433586 134.32643 
L 491.938304 134.32643 
L 517.458498 134.32643 
L 543.292278 134.32643 
L 569.007058 134.32643 
L 594.507813 134.32643 
L 620.899884 134.32643 
L 647.0555 134.32643 
L 673.130296 134.32643 
" clip-path="url(#pb34a06767c)" style="fill: none; stroke-dasharray: 5.55,2.4; stroke-dashoffset: 0; stroke: #2ca02c; stroke-width: 1.5"/>
   </g>
   <g id="line2d_29">
    <path d="M 20.5625 134.32643 
L 705.5725 134.32643 
" clip-path="url(#pb34a06767c)" style="fill: none; stroke: #000000; stroke-opacity: 0.6; stroke-linecap: square"/>
   </g>
   <g id="patch_3">
    <path d="M 20.5625 399.558125 
L 20.5625 22.318125 
" style="fill: none; stroke: #000000; stroke-width: 0.8; stroke-linejoin: miter; stroke-linecap: square"/>
   </g>
   <g id="patch_4">
    <path d="M 705.5725 399.558125 
L 705.5725 22.318125 
" style="fill: none; stroke: #000000; stroke-width: 0.8; stroke-linejoin: miter; stroke-linecap: square"/>
   </g>
   <g id="patch_5">
    <path d="M 20.5625 399.558125 
L 705.5725 399.558125 
" style="fill: none; stroke: #000000; stroke-width: 0.8; stroke-linejoin: miter; stroke-linecap: square"/>
   </g>
   <g id="patch_6">
    <path d="M 20.5625 22.318125 
L 705.5725 22.318125 
" style="fill: none; stroke: #000000; stroke-width: 0.8; stroke-linejoin: miter; stroke-linecap: square"/>
   </g>
   <g id="text_12">
    <!-- Block Time &amp; EWMA -->
    <g transform="translate(302.754375 16.318125) scale(0.12 -0.12)">
     <defs>
      <path id="DejaVuSans-42" d="M 1259 2228 
L 1259 519 
L 2272 519 
Q 2781 519 3026 730 
Q 3272 941 3272 1375 
Q 3272 1813 3026 2020 
Q 2781 2228 2272 2228 
L 1259 2228 
z
M 1259 4147 
L 1259 2741 
L 2194 2741 
Q 2656 2741 2882 2914 
Q 3109 3088 3109 3444 
Q 3109 3797 2882 3972 
Q 2656 4147 2194 4147 
L 1259 4147 
z
M 628 4666 
L 2241 4666 
Q 2963 4666 3353 4366 
Q 3744 4066 3744 3513 
Q 3744 3084 3544 2831 
Q 3344 2578 2956 2516 
Q 3422 2416 3680 2098 
Q 3938 1781 3938 1306 
Q 3938 681 3513 340 
Q 3088 0 2303 0 
L 628 0 
L 628 4666 
z
" transform="scale(0.015625)"/>
      <path id="DejaVuSans-6c" d="M 603 4863 
L 1178 4863 
L 1178 0 
L 603 0 
L 603 4863 
z
" transform="scale(0.015625)"/>
      <path id="DejaVuSans-6f" d="M 1959 3097 
Q 1497 3097 1228 2736 
Q 959 2375 959 1747 
Q 959 1119 1226 758 
Q 1494 397 1959 397 
Q 2419 397 2687 759 
Q 2956 1122 2956 1747 
Q 2956 2369 2687 2733 
Q 2419 3097 1959 3097 
z
M 1959 3584 
Q 2709 3584 3137 3096 
Q 3566 2609 3566 1747 
Q 3566 888 3137 398 
Q 2709 -91 1959 -91 
Q 1206 -91 779 398 
Q 353 888 353 1747 
Q 353 2609 779 3096 
Q 1206 3584 1959 3584 
z
" transform="scale(0.015625)"/>
      <path id="DejaVuSans-63" d="M 3122 3366 
L 3122 2828 
Q 2878 2963 2633 3030 
Q 2388 3097 2138 3097 
Q 1578 3097 1268 2742 
Q 959 2388 959 1747 
Q 959 1106 1268 751 
Q 1578 397 2138 397 
Q 2388 397 2633 464 
Q 2878 531 3122 666 
L 3122 134 
Q 2881 22 2623 -34 
Q 2366 -91 2075 -91 
Q 1284 -91 818 406 
Q 353 903 353 1747 
Q 353 2603 823 3093 
Q 1294 3584 2113 3584 
Q 2378 3584 2631 3529 
Q 2884 3475 3122 3366 
z
" transform="scale(0.015625)"/>
      <path id="DejaVuSans-6b" d="M 581 4863 
L 1159 4863 
L 1159 1991 
L 2875 3500 
L 3609 3500 
L 1753 1863 
L 3688 0 
L 2938 0 
L 1159 1709 
L 1159 0 
L 581 0 
L 581 4863 
z
" transform="scale(0.015625)"/>
      <path id="DejaVuSans-20" transform="scale(0.015625)"/>
      <path id="DejaVuSans-54" d="M -19 4666 
L 3928 4666 
L 3928 4134 
L 2272 4134 
L 2272 0 
L 1638 0 
L 1638 4134 
L -19 4134 
L -19 4666 
z
" transform="scale(0.015625)"/>
      <path id="DejaVuSans-69" d="M 603 3500 
L 1178 3500 
L 1178 0 
L 603 0 
L 603 3500 
z
M 603 4863 
L 1178 4863 
L 1178 4134 
L 603 4134 
L 603 4863 
z
" transform="scale(0.015625)"/>
      <path id="DejaVuSans-6d" d="M 3328 2828 
Q 3544 3216 3844 3400 
Q 4144 3584 4550 3584 
Q 5097 3584 5394 3201 
Q 5691 2819 5691 2113 
L 5691 0 
L 5113 0 
L 5113 2094 
Q 5113 2597 4934 2840 
Q 4756 3084 4391 3084 
Q 3944 3084 3684 2787 
Q 3425 2491 3425 1978 
L 3425 0 
L 2847 0 
L 2847 2094 
Q 2847 2600 2669 2842 
Q 2491 3084 2119 3084 
Q 1678 3084 1418 2786 
Q 1159 2488 1159 1978 
L 1159 0 
L 581 0 
L 581 3500 
L 1159 3500 
L 1159 2956 
Q 1356 3278 1631 3431 
Q 1906 3584 2284 3584 
Q 2666 3584 2933 3390 
Q 3200 3197 3328 2828 
z
" transform="scale(0.015625)"/>
      <path id="DejaVuSans-65" d="M 3597 1894 
L 3597 1613 
L 953 1613 
Q 991 1019 1311 708 
Q 1631 397 2203 397 
Q 2534 397 2845 478 
Q 3156 559 3463 722 
L 3463 178 
Q 3153 47 2828 -22 
Q 2503 -91 2169 -91 
Q 1331 -91 842 396 
Q 353 884 353 1716 
Q 353 2575 817 3079 
Q 1281 3584 2069 3584 
Q 2775 3584 3186 3129 
Q 3597 2675 3597 1894 
z
M 3022 2063 
Q 3016 2534 2758 2815 
Q 2500 3097 2075 3097 
Q 1594 3097 1305 2825 
Q 1016 2553 972 2059 
L 3022 2063 
z
" transform="scale(0.015625)"/>
      <path id="DejaVuSans-26" d="M 1556 2509 
Q 1272 2256 1139 2004 
Q 1006 1753 1006 1478 
Q 1006 1022 1337 719 
Q 1669 416 2169 416 
Q 2466 416 2725 514 
Q 2984 613 3213 813 
L 1556 2509 
z
M 1997 2859 
L 3584 1234 
Q 3769 1513 3872 1830 
Q 3975 2147 3994 2503 
L 4575 2503 
Q 4538 2091 4375 1687 
Q 4213 1284 3922 891 
L 4794 0 
L 4006 0 
L 3559 459 
Q 3234 181 2878 45 
Q 2522 -91 2113 -91 
Q 1359 -91 881 339 
Q 403 769 403 1441 
Q 403 1841 612 2192 
Q 822 2544 1241 2853 
Q 1091 3050 1012 3245 
Q 934 3441 934 3628 
Q 934 4134 1281 4442 
Q 1628 4750 2203 4750 
Q 2463 4750 2720 4694 
Q 2978 4638 3244 4525 
L 3244 3956 
Q 2972 4103 2725 4179 
Q 2478 4256 2266 4256 
Q 1938 4256 1733 4082 
Q 1528 3909 1528 3634 
Q 1528 3475 1620 3314 
Q 1713 3153 1997 2859 
z
" transform="scale(0.015625)"/>
      <path id="DejaVuSans-45" d="M 628 4666 
L 3578 4666 
L 3578 4134 
L 1259 4134 
L 1259 2753 
L 3481 2753 
L 3481 2222 
L 1259 2222 
L 1259 531 
L 3634 531 
L 3634 0 
L 628 0 
L 628 4666 
z
" transform="scale(0.015625)"/>
      <path id="DejaVuSans-57" d="M 213 4666 
L 850 4666 
L 1831 722 
L 2809 4666 
L 3519 4666 
L 4500 722 
L 5478 4666 
L 6119 4666 
L 4947 0 
L 4153 0 
L 3169 4050 
L 2175 0 
L 1381 0 
L 213 4666 
z
" transform="scale(0.015625)"/>
      <path id="DejaVuSans-4d" d="M 628 4666 
L 1569 4666 
L 2759 1491 
L 3956 4666 
L 4897 4666 
L 4897 0 
L 4281 0 
L 4281 4097 
L 3078 897 
L 2444 897 
L 1241 4097 
L 1241 0 
L 628 0 
L 628 4666 
z
" transform="scale(0.015625)"/>
      <path id="DejaVuSans-41" d="M 2188 4044 
L 1331 1722 
L 3047 1722 
L 2188 4044 
z
M 1831 4666 
L 2547 4666 
L 4325 0 
L 3669 0 
L 3244 1197 
L 1141 1197 
L 716 0 
L 50 0 
L 1831 4666 
z
" transform="scale(0.015625)"/>
     </defs>
     <use xlink:href="#DejaVuSans-42"/>
     <use xlink:href="#DejaVuSans-6c" transform="translate(68.603516 0)"/>
     <use xlink:href="#DejaVuSans-6f" transform="translate(96.386719 0)"/>
     <use xlink:href="#DejaVuSans-63" transform="translate(157.568359 0)"/>
     <use xlink:href="#DejaVuSans-6b" transform="translate(212.548828 0)"/>
     <use xlink:href="#DejaVuSans-20" transform="translate(270.458984 0)"/>
     <use xlink:href="#DejaVuSans-54" transform="translate(302.246094 0)"/>
     <use xlink:href="#DejaVuSans-69" transform="translate(360.205078 0)"/>
     <use xlink:href="#DejaVuSans-6d" transform="translate(387.988281 0)"/>
     <use xlink:href="#DejaVuSans-65" transform="translate(485.400391 0)"/>
     <use xlink:href="#DejaVuSans-20" transform="translate(546.923828 0)"/>
     <use xlink:href="#DejaVuSans-26" transform="translate(578.710938 0)"/>
     <use xlink:href="#DejaVuSans-20" transform="translate(656.689453 0)"/>
     <use xlink:href="#DejaVuSans-45" transform="translate(688.476562 0)"/>
     <use xlink:href="#DejaVuSans-57" transform="translate(751.660156 0)"/>
     <use xlink:href="#DejaVuSans-4d" transform="translate(850.537109 0)"/>
     <use xlink:href="#DejaVuSans-41" transform="translate(936.816406 0)"/>
    </g>
   </g>
   <g id="legend_1">
    <g id="patch_7">
     <path d="M 603.036719 89.56625 
L 700.6725 89.56625 
Q 702.0725 89.56625 702.0725 88.16625 
L 702.0725 27.218125 
Q 702.0725 25.818125 700.6725 25.818125 
L 603.036719 25.818125 
Q 601.636719 25.818125 601.636719 27.218125 
L 601.636719 88.16625 
Q 601.636719 89.56625 603.036719 89.56625 
z
" style="fill: #ffffff; opacity: 0.8; stroke: #cccccc; stroke-linejoin: miter"/>
    </g>
    <g id="line2d_30">
     <path d="M 604.436719 31.487031 
L 611.436719 31.487031 
L 618.436719 31.487031 
" style="fill: none; stroke: #1f77b4; stroke-width: 2; stroke-linecap: square"/>
    </g>
    <g id="text_13">
     <!-- CMDA-BlockTime -->
     <g transform="translate(624.036719 33.937031) scale(0.07 -0.07)">
      <defs>
       <path id="DejaVuSans-43" d="M 4122 4306 
L 4122 3641 
Q 3803 3938 3442 4084 
Q 3081 4231 2675 4231 
Q 1875 4231 1450 3742 
Q 1025 3253 1025 2328 
Q 1025 1406 1450 917 
Q 1875 428 2675 428 
Q 3081 428 3442 575 
Q 3803 722 4122 1019 
L 4122 359 
Q 3791 134 3420 21 
Q 3050 -91 2638 -91 
Q 1578 -91 968 557 
Q 359 1206 359 2328 
Q 359 3453 968 4101 
Q 1578 4750 2638 4750 
Q 3056 4750 3426 4639 
Q 3797 4528 4122 4306 
z
" transform="scale(0.015625)"/>
       <path id="DejaVuSans-44" d="M 1259 4147 
L 1259 519 
L 2022 519 
Q 2988 519 3436 956 
Q 3884 1394 3884 2338 
Q 3884 3275 3436 3711 
Q 2988 4147 2022 4147 
L 1259 4147 
z
M 628 4666 
L 1925 4666 
Q 3281 4666 3915 4102 
Q 4550 3538 4550 2338 
Q 4550 1131 3912 565 
Q 3275 0 1925 0 
L 628 0 
L 628 4666 
z
" transform="scale(0.015625)"/>
       <path id="DejaVuSans-2d" d="M 313 2009 
L 1997 2009 
L 1997 1497 
L 313 1497 
L 313 2009 
z
" transform="scale(0.015625)"/>
      </defs>
      <use xlink:href="#DejaVuSans-43"/>
      <use xlink:href="#DejaVuSans-4d" transform="translate(69.824219 0)"/>
      <use xlink:href="#DejaVuSans-44" transform="translate(156.103516 0)"/>
      <use xlink:href="#DejaVuSans-41" transform="translate(231.355469 0)"/>
      <use xlink:href="#DejaVuSans-2d" transform="translate(297.513672 0)"/>
      <use xlink:href="#DejaVuSans-42" transform="translate(329.972656 0)"/>
      <use xlink:href="#DejaVuSans-6c" transform="translate(398.576172 0)"/>
      <use xlink:href="#DejaVuSans-6f" transform="translate(426.359375 0)"/>
      <use xlink:href="#DejaVuSans-63" transform="translate(487.541016 0)"/>
      <use xlink:href="#DejaVuSans-6b" transform="translate(542.521484 0)"/>
      <use xlink:href="#DejaVuSans-54" transform="translate(600.431641 0)"/>
      <use xlink:href="#DejaVuSans-69" transform="translate(658.390625 0)"/>
      <use xlink:href="#DejaVuSans-6d" transform="translate(686.173828 0)"/>
      <use xlink:href="#DejaVuSans-65" transform="translate(783.585938 0)"/>
     </g>
    </g>
    <g id="line2d_31">
     <path d="M 604.436719 41.761719 
L 611.436719 41.761719 
L 618.436719 41.761719 
" style="fill: none; stroke-dasharray: 5.55,2.4; stroke-dashoffset: 0; stroke: #1f77b4; stroke-width: 1.5"/>
    </g>
    <g id="text_14">
     <!-- CMDA-EWMA -->
     <g transform="translate(624.036719 44.211719) scale(0.07 -0.07)">
      <use xlink:href="#DejaVuSans-43"/>
      <use xlink:href="#DejaVuSans-4d" transform="translate(69.824219 0)"/>
      <use xlink:href="#DejaVuSans-44" transform="translate(156.103516 0)"/>
      <use xlink:href="#DejaVuSans-41" transform="translate(231.355469 0)"/>
      <use xlink:href="#DejaVuSans-2d" transform="translate(297.513672 0)"/>
      <use xlink:href="#DejaVuSans-45" transform="translate(333.597656 0)"/>
      <use xlink:href="#DejaVuSans-57" transform="translate(396.78125 0)"/>
      <use xlink:href="#DejaVuSans-4d" transform="translate(495.658203 0)"/>
      <use xlink:href="#DejaVuSans-41" transform="translate(581.9375 0)"/>
     </g>
    </g>
    <g id="line2d_32">
     <path d="M 604.436719 52.036406 
L 611.436719 52.036406 
L 618.436719 52.036406 
" style="fill: none; stroke: #ff7f0e; stroke-width: 2; stroke-linecap: square"/>
    </g>
    <g id="text_15">
     <!-- FIXED-BlockTime -->
     <g transform="translate(624.036719 54.486406) scale(0.07 -0.07)">
      <defs>
       <path id="DejaVuSans-46" d="M 628 4666 
L 3309 4666 
L 3309 4134 
L 1259 4134 
L 1259 2759 
L 3109 2759 
L 3109 2228 
L 1259 2228 
L 1259 0 
L 628 0 
L 628 4666 
z
" transform="scale(0.015625)"/>
       <path id="DejaVuSans-49" d="M 628 4666 
L 1259 4666 
L 1259 0 
L 628 0 
L 628 4666 
z
" transform="scale(0.015625)"/>
       <path id="DejaVuSans-58" d="M 403 4666 
L 1081 4666 
L 2241 2931 
L 3406 4666 
L 4084 4666 
L 2584 2425 
L 4184 0 
L 3506 0 
L 2194 1984 
L 872 0 
L 191 0 
L 1856 2491 
L 403 4666 
z
" transform="scale(0.015625)"/>
      </defs>
      <use xlink:href="#DejaVuSans-46"/>
      <use xlink:href="#DejaVuSans-49" transform="translate(57.519531 0)"/>
      <use xlink:href="#DejaVuSans-58" transform="translate(87.011719 0)"/>
      <use xlink:href="#DejaVuSans-45" transform="translate(155.517578 0)"/>
      <use xlink:href="#DejaVuSans-44" transform="translate(218.701172 0)"/>
      <use xlink:href="#DejaVuSans-2d" transform="translate(295.703125 0)"/>
      <use xlink:href="#DejaVuSans-42" transform="translate(328.162109 0)"/>
      <use xlink:href="#DejaVuSans-6c" transform="translate(396.765625 0)"/>
      <use xlink:href="#DejaVuSans-6f" transform="translate(424.548828 0)"/>
      <use xlink:href="#DejaVuSans-63" transform="translate(485.730469 0)"/>
      <use xlink:href="#DejaVuSans-6b" transform="translate(540.710938 0)"/>
      <use xlink:href="#DejaVuSans-54" transform="translate(598.621094 0)"/>
      <use xlink:href="#DejaVuSans-69" transform="translate(656.580078 0)"/>
      <use xlink:href="#DejaVuSans-6d" transform="translate(684.363281 0)"/>
      <use xlink:href="#DejaVuSans-65" transform="translate(781.775391 0)"/>
     </g>
    </g>
    <g id="line2d_33">
     <path d="M 604.436719 62.311094 
L 611.436719 62.311094 
L 618.436719 62.311094 
" style="fill: none; stroke-dasharray: 5.55,2.4; stroke-dashoffset: 0; stroke: #ff7f0e; stroke-width: 1.5"/>
    </g>
    <g id="text_16">
     <!-- FIXED-EWMA -->
     <g transform="translate(624.036719 64.761094) scale(0.07 -0.07)">
      <use xlink:href="#DejaVuSans-46"/>
      <use xlink:href="#DejaVuSans-49" transform="translate(57.519531 0)"/>
      <use xlink:href="#DejaVuSans-58" transform="translate(87.011719 0)"/>
      <use xlink:href="#DejaVuSans-45" transform="translate(155.517578 0)"/>
      <use xlink:href="#DejaVuSans-44" transform="translate(218.701172 0)"/>
      <use xlink:href="#DejaVuSans-2d" transform="translate(295.703125 0)"/>
      <use xlink:href="#DejaVuSans-45" transform="translate(331.787109 0)"/>
      <use xlink:href="#DejaVuSans-57" transform="translate(394.970703 0)"/>
      <use xlink:href="#DejaVuSans-4d" transform="translate(493.847656 0)"/>
      <use xlink:href="#DejaVuSans-41" transform="translate(580.126953 0)"/>
     </g>
    </g>
    <g id="line2d_34">
     <path d="M 604.436719 72.585781 
L 611.436719 72.585781 
L 618.436719 72.585781 
" style="fill: none; stroke: #2ca02c; stroke-width: 2; stroke-linecap: square"/>
    </g>
    <g id="text_17">
     <!-- LOWCMDA-BlockTime -->
     <g transform="translate(624.036719 75.035781) scale(0.07 -0.07)">
      <defs>
       <path id="DejaVuSans-4c" d="M 628 4666 
L 1259 4666 
L 1259 531 
L 3531 531 
L 3531 0 
L 628 0 
L 628 4666 
z
" transform="scale(0.015625)"/>
       <path id="DejaVuSans-4f" d="M 2522 4238 
Q 1834 4238 1429 3725 
Q 1025 3213 1025 2328 
Q 1025 1447 1429 934 
Q 1834 422 2522 422 
Q 3209 422 3611 934 
Q 4013 1447 4013 2328 
Q 4013 3213 3611 3725 
Q 3209 4238 2522 4238 
z
M 2522 4750 
Q 3503 4750 4090 4092 
Q 4678 3434 4678 2328 
Q 4678 1225 4090 567 
Q 3503 -91 2522 -91 
Q 1538 -91 948 565 
Q 359 1222 359 2328 
Q 359 3434 948 4092 
Q 1538 4750 2522 4750 
z
" transform="scale(0.015625)"/>
      </defs>
      <use xlink:href="#DejaVuSans-4c"/>
      <use xlink:href="#DejaVuSans-4f" transform="translate(52.087891 0)"/>
      <use xlink:href="#DejaVuSans-57" transform="translate(130.798828 0)"/>
      <use xlink:href="#DejaVuSans-43" transform="translate(229.675781 0)"/>
      <use xlink:href="#DejaVuSans-4d" transform="translate(299.5 0)"/>
      <use xlink:href="#DejaVuSans-44" transform="translate(385.779297 0)"/>
      <use xlink:href="#DejaVuSans-41" transform="translate(461.03125 0)"/>
      <use xlink:href="#DejaVuSans-2d" transform="translate(527.189453 0)"/>
      <use xlink:href="#DejaVuSans-42" transform="translate(559.648438 0)"/>
      <use xlink:href="#DejaVuSans-6c" transform="translate(628.251953 0)"/>
      <use xlink:href="#DejaVuSans-6f" transform="translate(656.035156 0)"/>
      <use xlink:href="#DejaVuSans-63" transform="translate(717.216797 0)"/>
      <use xlink:href="#DejaVuSans-6b" transform="translate(772.197266 0)"/>
      <use xlink:href="#DejaVuSans-54" transform="translate(830.107422 0)"/>
      <use xlink:href="#DejaVuSans-69" transform="translate(888.066406 0)"/>
      <use xlink:href="#DejaVuSans-6d" transform="translate(915.849609 0)"/>
      <use xlink:href="#DejaVuSans-65" transform="translate(1013.261719 0)"/>
     </g>
    </g>
    <g id="line2d_35">
     <path d="M 604.436719 82.860469 
L 611.436719 82.860469 
L 618.436719 82.860469 
" style="fill: none; stroke-dasharray: 5.55,2.4; stroke-dashoffset: 0; stroke: #2ca02c; stroke-width: 1.5"/>
    </g>
    <g id="text_18">
     <!-- LOWCMDA-EWMA -->
     <g transform="translate(624.036719 85.310469) scale(0.07 -0.07)">
      <use xlink:href="#DejaVuSans-4c"/>
      <use xlink:href="#DejaVuSans-4f" transform="translate(52.087891 0)"/>
      <use xlink:href="#DejaVuSans-57" transform="translate(130.798828 0)"/>
      <use xlink:href="#DejaVuSans-43" transform="translate(229.675781 0)"/>
      <use xlink:href="#DejaVuSans-4d" transform="translate(299.5 0)"/>
      <use xlink:href="#DejaVuSans-44" transform="translate(385.779297 0)"/>
      <use xlink:href="#DejaVuSans-41" transform="translate(461.03125 0)"/>
      <use xlink:href="#DejaVuSans-2d" transform="translate(527.189453 0)"/>
      <use xlink:href="#DejaVuSans-45" transform="translate(563.273438 0)"/>
      <use xlink:href="#DejaVuSans-57" transform="translate(626.457031 0)"/>
      <use xlink:href="#DejaVuSans-4d" transform="translate(725.333984 0)"/>
      <use xlink:href="#DejaVuSans-41" transform="translate(811.613281 0)"/>
     </g>
    </g>
   </g>
  </g>
 </g>
 <defs>
  <clipPath id="pb34a06767c">
   <rect x="20.5625" y="22.318125" width="685.01" height="377.24"/>
  </clipPath>
 </defs>
</svg>
