<?xml version="1.0" encoding="utf-8" standalone="no"?>
<!DOCTYPE svg PUBLIC "-//W3C//DTD SVG 1.1//EN"
  "http://www.w3.org/Graphics/SVG/1.1/DTD/svg11.dtd">
<svg xmlns:xlink="http://www.w3.org/1999/xlink" width="712.7725pt" height="423.43625pt" viewBox="0 0 712.7725 423.43625" xmlns="http://www.w3.org/2000/svg" version="1.1">
 <metadata>
  <rdf:RDF xmlns:dc="http://purl.org/dc/elements/1.1/" xmlns:cc="http://creativecommons.org/ns#" xmlns:rdf="http://www.w3.org/1999/02/22-rdf-syntax-ns#">
   <cc:Work>
    <dc:type rdf:resource="http://purl.org/dc/dcmitype/StillImage"/>
    <dc:date>2025-11-22T12:39:51.999086</dc:date>
    <dc:format>image/svg+xml</dc:format>
    <dc:creator>
     <cc:Agent>
      <dc:title>Matplotlib v3.10.7, https://matplotlib.org/</dc:title>
     </cc:Agent>
    </dc:creator>
   </cc:Work>
  </rdf:RDF>
 </metadata>
 <defs>
  <style type="text/css">*{stroke-linejoin: round; stroke-linecap: butt}</style>
 </defs>
 <g id="figure_1">
  <g id="patch_1">
   <path d="M 0 423.43625 
L 712.7725 423.43625 
L 712.7725 0 
L 0 0 
z
" style="fill: #ffffff"/>
  </g>
  <g id="axes_1">
   <g id="patch_2">
    <path d="M 20.5625 399.558125 
L 705.5725 399.558125 
L 705.5725 22.318125 
L 20.5625 22.318125 
z
" style="fill: #ffffff"/>
   </g>
   <g id="matplotlib.axis_1">
    <g id="xtick_1">
     <g id="line2d_1">
      <path d="M 26.314473 399.558125 
L 26.314473 22.318125 
" clip-path="url(#p10e6483b1a)" style="fill: none; stroke: #b0b0b0; stroke-opacity: 0.25; stroke-width: 0.8; stroke-linecap: square"/>
     </g>
     <g id="line2d_2">
      <defs>
       <path id="mce24290929" d="M 0 0 
L 0 3.5 
" style="stroke: #000000; stroke-width: 0.8"/>
      </defs>
      <g>
       <use xlink:href="#mce24290929" x="26.314473" y="399.558125" style="stroke: #000000; stroke-width: 0.8"/>
      </g>
     </g>
     <g id="text_1">
      <!-- 0 -->
      <g transform="translate(23.133223 414.156563) scale(0.1 -0.1)">
       <defs>
        <path id="DejaVuSans-30" d="M 2034 4250 
Q 1547 4250 1301 3770 
Q 1056 3291 1056 2328 
Q 1056 1369 1301 889 
Q 1547 409 2034 409 
Q 2525 409 2770 889 
Q 3016 1369 3016 2328 
Q 3016 3291 2770 3770 
Q 2525 4250 2034 4250 
z
M 2034 4750 
Q 2819 4750 3233 4129 
Q 3647 3509 3647 2328 
Q 3647 1150 3233 529 
Q 2819 -91 2034 -91 
Q 1250 -91 836 529 
Q 422 1150 422 2328 
Q 422 3509 836 4129 
Q 1250 4750 2034 4750 
z
" transform="scale(0.015625)"/>
       </defs>
       <use xlink:href="#DejaVuSans-30"/>
      </g>
     </g>
    </g>
    <g id="xtick_2">
     <g id="line2d_3">
      <path d="M 150.921752 399.558125 
L 150.921752 22.318125 
" clip-path="url(#p10e6483b1a)" style="fill: none; stroke: #b0b0b0; stroke-opacity: 0.25; stroke-width: 0.8; stroke-linecap: square"/>
     </g>
     <g id="line2d_4">
      <g>
       <use xlink:href="#mce24290929" x="150.921752" y="399.558125" style="stroke: #000000; stroke-width: 0.8"/>
      </g>
     </g>
     <g id="text_2">
      <!-- 5 -->
      <g transform="translate(147.740502 414.156563) scale(0.1 -0.1)">
       <defs>
        <path id="DejaVuSans-35" d="M 691 4666 
L 3169 4666 
L 3169 4134 
L 1269 4134 
L 1269 2991 
Q 1406 3038 1543 3061 
Q 1681 3084 1819 3084 
Q 2600 3084 3056 2656 
Q 3513 2228 3513 1497 
Q 3513 744 3044 326 
Q 2575 -91 1722 -91 
Q 1428 -91 1123 -41 
Q 819 9 494 109 
L 494 744 
Q 775 591 1075 516 
Q 1375 441 1709 441 
Q 2250 441 2565 725 
Q 2881 1009 2881 1497 
Q 2881 1984 2565 2268 
Q 2250 2553 1709 2553 
Q 1456 2553 1204 2497 
Q 953 2441 691 2322 
L 691 4666 
z
" transform="scale(0.015625)"/>
       </defs>
       <use xlink:href="#DejaVuSans-35"/>
      </g>
     </g>
    </g>
    <g id="xtick_3">
     <g id="line2d_5">
      <path d="M 275.52903 399.558125 
L 275.52903 22.318125 
" clip-path="url(#p10e6483b1a)" style="fill: none; stroke: #b0b0b0; stroke-opacity: 0.25; stroke-width: 0.8; stroke-linecap: square"/>
     </g>
     <g id="line2d_6">
      <g>
       <use xlink:href="#mce24290929" x="275.52903" y="399.558125" style="stroke: #000000; stroke-width: 0.8"/>
      </g>
     </g>
     <g id="text_3">
      <!-- 10 -->
      <g transform="translate(269.16653 414.156563) scale(0.1 -0.1)">
       <defs>
        <path id="DejaVuSans-31" d="M 794 531 
L 1825 531 
L 1825 4091 
L 703 3866 
L 703 4441 
L 1819 4666 
L 2450 4666 
L 2450 531 
L 3481 531 
L 3481 0 
L 794 0 
L 794 531 
z
" transform="scale(0.015625)"/>
       </defs>
       <use xlink:href="#DejaVuSans-31"/>
       <use xlink:href="#DejaVuSans-30" transform="translate(63.623047 0)"/>
      </g>
     </g>
    </g>
    <g id="xtick_4">
     <g id="line2d_7">
      <path d="M 400.136309 399.558125 
L 400.136309 22.318125 
" clip-path="url(#p10e6483b1a)" style="fill: none; stroke: #b0b0b0; stroke-opacity: 0.25; stroke-width: 0.8; stroke-linecap: square"/>
     </g>
     <g id="line2d_8">
      <g>
       <use xlink:href="#mce24290929" x="400.136309" y="399.558125" style="stroke: #000000; stroke-width: 0.8"/>
      </g>
     </g>
     <g id="text_4">
      <!-- 15 -->
      <g transform="translate(393.773809 414.156563) scale(0.1 -0.1)">
       <use xlink:href="#DejaVuSans-31"/>
       <use xlink:href="#DejaVuSans-35" transform="translate(63.623047 0)"/>
      </g>
     </g>
    </g>
    <g id="xtick_5">
     <g id="line2d_9">
      <path d="M 524.743587 399.558125 
L 524.743587 22.318125 
" clip-path="url(#p10e6483b1a)" style="fill: none; stroke: #b0b0b0; stroke-opacity: 0.25; stroke-width: 0.8; stroke-linecap: square"/>
     </g>
     <g id="line2d_10">
      <g>
       <use xlink:href="#mce24290929" x="524.743587" y="399.558125" style="stroke: #000000; stroke-width: 0.8"/>
      </g>
     </g>
     <g id="text_5">
      <!-- 20 -->
      <g transform="translate(518.381087 414.156563) scale(0.1 -0.1)">
       <defs>
        <path id="DejaVuSans-32" d="M 1228 531 
L 3431 531 
L 3431 0 
L 469 0 
L 469 531 
Q 828 903 1448 1529 
Q 2069 2156 2228 2338 
Q 2531 2678 2651 2914 
Q 2772 3150 2772 3378 
Q 2772 3750 2511 3984 
Q 2250 4219 1831 4219 
Q 1534 4219 1204 4116 
Q 875 4013 500 3803 
L 500 4441 
Q 881 4594 1212 4672 
Q 1544 4750 1819 4750 
Q 2544 4750 2975 4387 
Q 3406 4025 3406 3419 
Q 3406 3131 3298 2873 
Q 3191 2616 2906 2266 
Q 2828 2175 2409 1742 
Q 1991 1309 1228 531 
z
" transform="scale(0.015625)"/>
       </defs>
       <use xlink:href="#DejaVuSans-32"/>
       <use xlink:href="#DejaVuSans-30" transform="translate(63.623047 0)"/>
      </g>
     </g>
    </g>
    <g id="xtick_6">
     <g id="line2d_11">
      <path d="M 649.350866 399.558125 
L 649.350866 22.318125 
" clip-path="url(#p10e6483b1a)" style="fill: none; stroke: #b0b0b0; stroke-opacity: 0.25; stroke-width: 0.8; stroke-linecap: square"/>
     </g>
     <g id="line2d_12">
      <g>
       <use xlink:href="#mce24290929" x="649.350866" y="399.558125" style="stroke: #000000; stroke-width: 0.8"/>
      </g>
     </g>
     <g id="text_6">
      <!-- 25 -->
      <g transform="translate(642.988366 414.156563) scale(0.1 -0.1)">
       <use xlink:href="#DejaVuSans-32"/>
       <use xlink:href="#DejaVuSans-35" transform="translate(63.623047 0)"/>
      </g>
     </g>
    </g>
   </g>
   <g id="matplotlib.axis_2">
    <g id="ytick_1">
     <g id="line2d_13">
      <path d="M 20.5625 382.410852 
L 705.5725 382.410852 
" clip-path="url(#p10e6483b1a)" style="fill: none; stroke: #b0b0b0; stroke-opacity: 0.25; stroke-width: 0.8; stroke-linecap: square"/>
     </g>
     <g id="line2d_14">
      <defs>
       <path id="m2aa6f2015a" d="M 0 0 
L -3.5 0 
" style="stroke: #000000; stroke-width: 0.8"/>
      </defs>
      <g>
       <use xlink:href="#m2aa6f2015a" x="20.5625" y="382.410852" style="stroke: #000000; stroke-width: 0.8"/>
      </g>
     </g>
     <g id="text_7">
      <!-- 0 -->
      <g transform="translate(7.2 386.210071) scale(0.1 -0.1)">
       <use xlink:href="#DejaVuSans-30"/>
      </g>
     </g>
    </g>
    <g id="ytick_2">
     <g id="line2d_15">
      <path d="M 20.5625 313.821761 
L 705.5725 313.821761 
" clip-path="url(#p10e6483b1a)" style="fill: none; stroke: #b0b0b0; stroke-opacity: 0.25; stroke-width: 0.8; stroke-linecap: square"/>
     </g>
     <g id="line2d_16">
      <g>
       <use xlink:href="#m2aa6f2015a" x="20.5625" y="313.821761" style="stroke: #000000; stroke-width: 0.8"/>
      </g>
     </g>
     <g id="text_8">
      <!-- 1 -->
      <g transform="translate(7.2 317.62098) scale(0.1 -0.1)">
       <use xlink:href="#DejaVuSans-31"/>
      </g>
     </g>
    </g>
    <g id="ytick_3">
     <g id="line2d_17">
      <path d="M 20.5625 245.23267 
L 705.5725 245.23267 
" clip-path="url(#p10e6483b1a)" style="fill: none; stroke: #b0b0b0; stroke-opacity: 0.25; stroke-width: 0.8; stroke-linecap: square"/>
     </g>
     <g id="line2d_18">
      <g>
       <use xlink:href="#m2aa6f2015a" x="20.5625" y="245.23267" style="stroke: #000000; stroke-width: 0.8"/>
      </g>
     </g>
     <g id="text_9">
      <!-- 2 -->
      <g transform="translate(7.2 249.031889) scale(0.1 -0.1)">
       <use xlink:href="#DejaVuSans-32"/>
      </g>
     </g>
    </g>
    <g id="ytick_4">
     <g id="line2d_19">
      <path d="M 20.5625 176.64358 
L 705.5725 176.64358 
" clip-path="url(#p10e6483b1a)" style="fill: none; stroke: #b0b0b0; stroke-opacity: 0.25; stroke-width: 0.8; stroke-linecap: square"/>
     </g>
     <g id="line2d_20">
      <g>
       <use xlink:href="#m2aa6f2015a" x="20.5625" y="176.64358" style="stroke: #000000; stroke-width: 0.8"/>
      </g>
     </g>
     <g id="text_10">
      <!-- 3 -->
      <g transform="translate(7.2 180.442798) scale(0.1 -0.1)">
       <defs>
        <path id="DejaVuSans-33" d="M 2597 2516 
Q 3050 2419 3304 2112 
Q 3559 1806 3559 1356 
Q 3559 666 3084 287 
Q 2609 -91 1734 -91 
Q 1441 -91 1130 -33 
Q 819 25 488 141 
L 488 750 
Q 750 597 1062 519 
Q 1375 441 1716 441 
Q 2309 441 2620 675 
Q 2931 909 2931 1356 
Q 2931 1769 2642 2001 
Q 2353 2234 1838 2234 
L 1294 2234 
L 1294 2753 
L 1863 2753 
Q 2328 2753 2575 2939 
Q 2822 3125 2822 3475 
Q 2822 3834 2567 4026 
Q 2313 4219 1838 4219 
Q 1578 4219 1281 4162 
Q 984 4106 628 3988 
L 628 4550 
Q 988 4650 1302 4700 
Q 1616 4750 1894 4750 
Q 2613 4750 3031 4423 
Q 3450 4097 3450 3541 
Q 3450 3153 3228 2886 
Q 3006 2619 2597 2516 
z
" transform="scale(0.015625)"/>
       </defs>
       <use xlink:href="#DejaVuSans-33"/>
      </g>
     </g>
    </g>
    <g id="ytick_5">
     <g id="line2d_21">
      <path d="M 20.5625 108.054489 
L 705.5725 108.054489 
" clip-path="url(#p10e6483b1a)" style="fill: none; stroke: #b0b0b0; stroke-opacity: 0.25; stroke-width: 0.8; stroke-linecap: square"/>
     </g>
     <g id="line2d_22">
      <g>
       <use xlink:href="#m2aa6f2015a" x="20.5625" y="108.054489" style="stroke: #000000; stroke-width: 0.8"/>
      </g>
     </g>
     <g id="text_11">
      <!-- 4 -->
      <g transform="translate(7.2 111.853707) scale(0.1 -0.1)">
       <defs>
        <path id="DejaVuSans-34" d="M 2419 4116 
L 825 1625 
L 2419 1625 
L 2419 4116 
z
M 2253 4666 
L 3047 4666 
L 3047 1625 
L 3713 1625 
L 3713 1100 
L 3047 1100 
L 3047 0 
L 2419 0 
L 2419 1100 
L 313 1100 
L 313 1709 
L 2253 4666 
z
" transform="scale(0.015625)"/>
       </defs>
       <use xlink:href="#DejaVuSans-34"/>
      </g>
     </g>
    </g>
    <g id="ytick_6">
     <g id="line2d_23">
      <path d="M 20.5625 39.465398 
L 705.5725 39.465398 
" clip-path="url(#p10e6483b1a)" style="fill: none; stroke: #b0b0b0; stroke-opacity: 0.25; stroke-width: 0.8; stroke-linecap: square"/>
     </g>
     <g id="line2d_24">
      <g>
       <use xlink:href="#m2aa6f2015a" x="20.5625" y="39.465398" style="stroke: #000000; stroke-width: 0.8"/>
      </g>
     </g>
     <g id="text_12">
      <!-- 5 -->
      <g transform="translate(7.2 43.264616) scale(0.1 -0.1)">
       <use xlink:href="#DejaVuSans-35"/>
      </g>
     </g>
    </g>
   </g>
   <g id="line2d_25">
    <path d="M 51.944246 313.821761 
L 80.121765 313.821761 
L 107.227661 313.821761 
L 133.906329 313.821761 
L 159.330026 313.821761 
L 192.256652 313.821761 
L 221.003302 313.821761 
L 250.562865 313.821761 
L 283.120355 313.821761 
L 319.371827 313.821761 
L 347.674775 313.821761 
L 374.386514 245.23267 
L 400.647224 245.23267 
L 426.437865 245.23267 
L 456.080192 245.23267 
L 486.938885 176.64358 
L 513.430119 176.64358 
L 539.210318 176.64358 
L 566.132792 176.64358 
L 591.557861 176.64358 
L 618.635795 108.054489 
L 646.091912 108.054489 
L 674.435682 108.054489 
" clip-path="url(#p10e6483b1a)" style="fill: none; stroke: #1f77b4; stroke-width: 2; stroke-linecap: square"/>
   </g>
   <g id="line2d_26">
    <path d="M 51.944246 382.410852 
L 80.121765 382.410852 
L 107.227661 382.410852 
L 133.906329 382.410852 
L 159.330026 382.410852 
L 192.256652 313.821761 
L 221.003302 313.821761 
L 250.562865 313.821761 
L 283.120355 313.821761 
L 319.371827 313.821761 
L 347.674775 313.821761 
L 374.386514 245.23267 
L 400.647224 245.23267 
L 426.437865 245.23267 
L 456.080192 245.23267 
L 486.938885 176.64358 
L 513.430119 176.64358 
L 539.210318 176.64358 
L 566.132792 176.64358 
L 591.557861 176.64358 
L 618.635795 108.054489 
L 646.091912 108.054489 
L 674.435682 108.054489 
" clip-path="url(#p10e6483b1a)" style="fill: none; stroke-dasharray: 5.55,2.4; stroke-dashoffset: 0; stroke: #1f77b4; stroke-width: 1.5"/>
   </g>
   <g id="line2d_27">
    <path d="M 52.564192 313.821761 
L 78.230675 313.821761 
L 105.740025 313.821761 
L 135.752236 313.821761 
L 161.592272 313.821761 
L 187.849742 313.821761 
L 219.112661 313.821761 
L 245.269922 313.821761 
L 272.04825 313.821761 
L 300.808308 313.821761 
L 327.512869 313.821761 
L 355.437285 313.821761 
L 383.299797 313.821761 
L 412.927221 245.23267 
L 443.38428 245.23267 
L 473.801266 245.23267 
L 500.09552 245.23267 
L 531.71671 245.23267 
L 559.229026 245.23267 
L 587.15561 176.64358 
L 614.66339 176.64358 
L 644.283387 313.821761 
L 670.515337 245.23267 
" clip-path="url(#p10e6483b1a)" style="fill: none; stroke: #ff7f0e; stroke-width: 2; stroke-linecap: square"/>
   </g>
   <g id="line2d_28">
    <path d="M 52.564192 382.410852 
L 78.230675 382.410852 
L 105.740025 382.410852 
L 135.752236 382.410852 
L 161.592272 382.410852 
L 187.849742 382.410852 
L 219.112661 313.821761 
L 245.269922 313.821761 
L 272.04825 313.821761 
L 300.808308 313.821761 
L 327.512869 313.821761 
L 355.437285 313.821761 
L 383.299797 313.821761 
L 412.927221 245.23267 
L 443.38428 245.23267 
L 473.801266 245.23267 
L 500.09552 245.23267 
L 531.71671 245.23267 
L 559.229026 245.23267 
L 587.15561 176.64358 
L 614.66339 176.64358 
L 644.283387 108.054489 
L 670.515337 39.465398 
" clip-path="url(#p10e6483b1a)" style="fill: none; stroke-dasharray: 5.55,2.4; stroke-dashoffset: 0; stroke: #ff7f0e; stroke-width: 1.5"/>
   </g>
   <g id="line2d_29">
    <path d="M 51.699318 313.821761 
L 77.589994 313.821761 
L 102.901994 313.821761 
L 128.443645 313.821761 
L 153.743558 313.821761 
L 179.047458 313.821761 
L 205.021447 313.821761 
L 231.424234 245.23267 
L 257.255946 245.23267 
L 284.062685 245.23267 
L 310.364316 245.23267 
L 336.607406 245.23267 
L 362.644969 176.64358 
L 388.504718 176.64358 
L 414.657891 176.64358 
L 440.705947 176.64358 
L 466.433586 176.64358 
L 491.938304 176.64358 
L 517.458498 176.64358 
L 543.292278 176.64358 
L 569.007058 176.64358 
L 594.507813 176.64358 
L 620.899884 176.64358 
L 647.0555 176.64358 
L 673.130296 176.64358 
" clip-path="url(#p10e6483b1a)" style="fill: none; stroke: #2ca02c; stroke-width: 2; stroke-linecap: square"/>
   </g>
   <g id="line2d_30">
    <path d="M 51.699318 382.410852 
L 77.589994 382.410852 
L 102.901994 382.410852 
L 128.443645 382.410852 
L 153.743558 382.410852 
L 179.047458 382.410852 
L 205.021447 313.821761 
L 231.424234 245.23267 
L 257.255946 245.23267 
L 284.062685 245.23267 
L 310.364316 245.23267 
L 336.607406 245.23267 
L 362.644969 176.64358 
L 388.504718 176.64358 
L 414.657891 176.64358 
L 440.705947 176.64358 
L 466.433586 176.64358 
L 491.938304 176.64358 
L 517.458498 176.64358 
L 543.292278 176.64358 
L 569.007058 176.64358 
L 594.507813 176.64358 
L 620.899884 176.64358 
L 647.0555 176.64358 
L 673.130296 176.64358 
" clip-path="url(#p10e6483b1a)" style="fill: none; stroke-dasharray: 5.55,2.4; stroke-dashoffset: 0; stroke: #2ca02c; stroke-width: 1.5"/>
   </g>
   <g id="patch_3">
    <path d="M 20.5625 399.558125 
L 20.5625 22.318125 
" style="fill: none; stroke: #000000; stroke-width: 0.8; stroke-linejoin: miter; stroke-linecap: square"/>
   </g>
   <g id="patch_4">
    <path d="M 705.5725 399.558125 
L 705.5725 22.318125 
" style="fill: none; stroke: #000000; stroke-width: 0.8; stroke-linejoin: miter; stroke-linecap: square"/>
   </g>
   <g id="patch_5">
    <path d="M 20.5625 399.558125 
L 705.5725 399.558125 
" style="fill: none; stroke: #000000; stroke-width: 0.8; stroke-linejoin: miter; stroke-linecap: square"/>
   </g>
   <g id="patch_6">
    <path d="M 20.5625 22.318125 
L 705.5725 22.318125 
" style="fill: none; stroke: #000000; stroke-width: 0.8; stroke-linejoin: miter; stroke-linecap: square"/>
   </g>
   <g id="text_13">
    <!-- DAG: Tips &amp; Nodes -->
    <g transform="translate(306.617813 16.318125) scale(0.12 -0.12)">
     <defs>
      <path id="DejaVuSans-44" d="M 1259 4147 
L 1259 519 
L 2022 519 
Q 2988 519 3436 956 
Q 3884 1394 3884 2338 
Q 3884 3275 3436 3711 
Q 2988 4147 2022 4147 
L 1259 4147 
z
M 628 4666 
L 1925 4666 
Q 3281 4666 3915 4102 
Q 4550 3538 4550 2338 
Q 4550 1131 3912 565 
Q 3275 0 1925 0 
L 628 0 
L 628 4666 
z
" transform="scale(0.015625)"/>
      <path id="DejaVuSans-41" d="M 2188 4044 
L 1331 1722 
L 3047 1722 
L 2188 4044 
z
M 1831 4666 
L 2547 4666 
L 4325 0 
L 3669 0 
L 3244 1197 
L 1141 1197 
L 716 0 
L 50 0 
L 1831 4666 
z
" transform="scale(0.015625)"/>
      <path id="DejaVuSans-47" d="M 3809 666 
L 3809 1919 
L 2778 1919 
L 2778 2438 
L 4434 2438 
L 4434 434 
Q 4069 175 3628 42 
Q 3188 -91 2688 -91 
Q 1594 -91 976 548 
Q 359 1188 359 2328 
Q 359 3472 976 4111 
Q 1594 4750 2688 4750 
Q 3144 4750 3555 4637 
Q 3966 4525 4313 4306 
L 4313 3634 
Q 3963 3931 3569 4081 
Q 3175 4231 2741 4231 
Q 1884 4231 1454 3753 
Q 1025 3275 1025 2328 
Q 1025 1384 1454 906 
Q 1884 428 2741 428 
Q 3075 428 3337 486 
Q 3600 544 3809 666 
z
" transform="scale(0.015625)"/>
      <path id="DejaVuSans-3a" d="M 750 794 
L 1409 794 
L 1409 0 
L 750 0 
L 750 794 
z
M 750 3309 
L 1409 3309 
L 1409 2516 
L 750 2516 
L 750 3309 
z
" transform="scale(0.015625)"/>
      <path id="DejaVuSans-20" transform="scale(0.015625)"/>
      <path id="DejaVuSans-54" d="M -19 4666 
L 3928 4666 
L 3928 4134 
L 2272 4134 
L 2272 0 
L 1638 0 
L 1638 4134 
L -19 4134 
L -19 4666 
z
" transform="scale(0.015625)"/>
      <path id="DejaVuSans-69" d="M 603 3500 
L 1178 3500 
L 1178 0 
L 603 0 
L 603 3500 
z
M 603 4863 
L 1178 4863 
L 1178 4134 
L 603 4134 
L 603 4863 
z
" transform="scale(0.015625)"/>
      <path id="DejaVuSans-70" d="M 1159 525 
L 1159 -1331 
L 581 -1331 
L 581 3500 
L 1159 3500 
L 1159 2969 
Q 1341 3281 1617 3432 
Q 1894 3584 2278 3584 
Q 2916 3584 3314 3078 
Q 3713 2572 3713 1747 
Q 3713 922 3314 415 
Q 2916 -91 2278 -91 
Q 1894 -91 1617 61 
Q 1341 213 1159 525 
z
M 3116 1747 
Q 3116 2381 2855 2742 
Q 2594 3103 2138 3103 
Q 1681 3103 1420 2742 
Q 1159 2381 1159 1747 
Q 1159 1113 1420 752 
Q 1681 391 2138 391 
Q 2594 391 2855 752 
Q 3116 1113 3116 1747 
z
" transform="scale(0.015625)"/>
      <path id="DejaVuSans-73" d="M 2834 3397 
L 2834 2853 
Q 2591 2978 2328 3040 
Q 2066 3103 1784 3103 
Q 1356 3103 1142 2972 
Q 928 2841 928 2578 
Q 928 2378 1081 2264 
Q 1234 2150 1697 2047 
L 1894 2003 
Q 2506 1872 2764 1633 
Q 3022 1394 3022 966 
Q 3022 478 2636 193 
Q 2250 -91 1575 -91 
Q 1294 -91 989 -36 
Q 684 19 347 128 
L 347 722 
Q 666 556 975 473 
Q 1284 391 1588 391 
Q 1994 391 2212 530 
Q 2431 669 2431 922 
Q 2431 1156 2273 1281 
Q 2116 1406 1581 1522 
L 1381 1569 
Q 847 1681 609 1914 
Q 372 2147 372 2553 
Q 372 3047 722 3315 
Q 1072 3584 1716 3584 
Q 2034 3584 2315 3537 
Q 2597 3491 2834 3397 
z
" transform="scale(0.015625)"/>
      <path id="DejaVuSans-26" d="M 1556 2509 
Q 1272 2256 1139 2004 
Q 1006 1753 1006 1478 
Q 1006 1022 1337 719 
Q 1669 416 2169 416 
Q 2466 416 2725 514 
Q 2984 613 3213 813 
L 1556 2509 
z
M 1997 2859 
L 3584 1234 
Q 3769 1513 3872 1830 
Q 3975 2147 3994 2503 
L 4575 2503 
Q 4538 2091 4375 1687 
Q 4213 1284 3922 891 
L 4794 0 
L 4006 0 
L 3559 459 
Q 3234 181 2878 45 
Q 2522 -91 2113 -91 
Q 1359 -91 881 339 
Q 403 769 403 1441 
Q 403 1841 612 2192 
Q 822 2544 1241 2853 
Q 1091 3050 1012 3245 
Q 934 3441 934 3628 
Q 934 4134 1281 4442 
Q 1628 4750 2203 4750 
Q 2463 4750 2720 4694 
Q 2978 4638 3244 4525 
L 3244 3956 
Q 2972 4103 2725 4179 
Q 2478 4256 2266 4256 
Q 1938 4256 1733 4082 
Q 1528 3909 1528 3634 
Q 1528 3475 1620 3314 
Q 1713 3153 1997 2859 
z
" transform="scale(0.015625)"/>
      <path id="DejaVuSans-4e" d="M 628 4666 
L 1478 4666 
L 3547 763 
L 3547 4666 
L 4159 4666 
L 4159 0 
L 3309 0 
L 1241 3903 
L 1241 0 
L 628 0 
L 628 4666 
z
" transform="scale(0.015625)"/>
      <path id="DejaVuSans-6f" d="M 1959 3097 
Q 1497 3097 1228 2736 
Q 959 2375 959 1747 
Q 959 1119 1226 758 
Q 1494 397 1959 397 
Q 2419 397 2687 759 
Q 2956 1122 2956 1747 
Q 2956 2369 2687 2733 
Q 2419 3097 1959 3097 
z
M 1959 3584 
Q 2709 3584 3137 3096 
Q 3566 2609 3566 1747 
Q 3566 888 3137 398 
Q 2709 -91 1959 -91 
Q 1206 -91 779 398 
Q 353 888 353 1747 
Q 353 2609 779 3096 
Q 1206 3584 1959 3584 
z
" transform="scale(0.015625)"/>
      <path id="DejaVuSans-64" d="M 2906 2969 
L 2906 4863 
L 3481 4863 
L 3481 0 
L 2906 0 
L 2906 525 
Q 2725 213 2448 61 
Q 2172 -91 1784 -91 
Q 1150 -91 751 415 
Q 353 922 353 1747 
Q 353 2572 751 3078 
Q 1150 3584 1784 3584 
Q 2172 3584 2448 3432 
Q 2725 3281 2906 2969 
z
M 947 1747 
Q 947 1113 1208 752 
Q 1469 391 1925 391 
Q 2381 391 2643 752 
Q 2906 1113 2906 1747 
Q 2906 2381 2643 2742 
Q 2381 3103 1925 3103 
Q 1469 3103 1208 2742 
Q 947 2381 947 1747 
z
" transform="scale(0.015625)"/>
      <path id="DejaVuSans-65" d="M 3597 1894 
L 3597 1613 
L 953 1613 
Q 991 1019 1311 708 
Q 1631 397 2203 397 
Q 2534 397 2845 478 
Q 3156 559 3463 722 
L 3463 178 
Q 3153 47 2828 -22 
Q 2503 -91 2169 -91 
Q 1331 -91 842 396 
Q 353 884 353 1716 
Q 353 2575 817 3079 
Q 1281 3584 2069 3584 
Q 2775 3584 3186 3129 
Q 3597 2675 3597 1894 
z
M 3022 2063 
Q 3016 2534 2758 2815 
Q 2500 3097 2075 3097 
Q 1594 3097 1305 2825 
Q 1016 2553 972 2059 
L 3022 2063 
z
" transform="scale(0.015625)"/>
     </defs>
     <use xlink:href="#DejaVuSans-44"/>
     <use xlink:href="#DejaVuSans-41" transform="translate(75.251953 0)"/>
     <use xlink:href="#DejaVuSans-47" transform="translate(141.910156 0)"/>
     <use xlink:href="#DejaVuSans-3a" transform="translate(219.400391 0)"/>
     <use xlink:href="#DejaVuSans-20" transform="translate(253.091797 0)"/>
     <use xlink:href="#DejaVuSans-54" transform="translate(284.878906 0)"/>
     <use xlink:href="#DejaVuSans-69" transform="translate(342.837891 0)"/>
     <use xlink:href="#DejaVuSans-70" transform="translate(370.621094 0)"/>
     <use xlink:href="#DejaVuSans-73" transform="translate(434.097656 0)"/>
     <use xlink:href="#DejaVuSans-20" transform="translate(486.197266 0)"/>
     <use xlink:href="#DejaVuSans-26" transform="translate(517.984375 0)"/>
     <use xlink:href="#DejaVuSans-20" transform="translate(595.962891 0)"/>
     <use xlink:href="#DejaVuSans-4e" transform="translate(627.75 0)"/>
     <use xlink:href="#DejaVuSans-6f" transform="translate(702.554688 0)"/>
     <use xlink:href="#DejaVuSans-64" transform="translate(763.736328 0)"/>
     <use xlink:href="#DejaVuSans-65" transform="translate(827.212891 0)"/>
     <use xlink:href="#DejaVuSans-73" transform="translate(888.736328 0)"/>
    </g>
   </g>
   <g id="legend_1">
    <g id="patch_7">
     <path d="M 25.4625 89.56625 
L 109.209844 89.56625 
Q 110.609844 89.56625 110.609844 88.16625 
L 110.609844 27.218125 
Q 110.609844 25.818125 109.209844 25.818125 
L 25.4625 25.818125 
Q 24.0625 25.818125 24.0625 27.218125 
L 24.0625 88.16625 
Q 24.0625 89.56625 25.4625 89.56625 
z
" style="fill: #ffffff; opacity: 0.8; stroke: #cccccc; stroke-linejoin: miter"/>
    </g>
    <g id="line2d_31">
     <path d="M 26.8625 31.487031 
L 33.8625 31.487031 
L 40.8625 31.487031 
" style="fill: none; stroke: #1f77b4; stroke-width: 2; stroke-linecap: square"/>
    </g>
    <g id="text_14">
     <!-- CMDA-Tips -->
     <g transform="translate(46.4625 33.937031) scale(0.07 -0.07)">
      <defs>
       <path id="DejaVuSans-43" d="M 4122 4306 
L 4122 3641 
Q 3803 3938 3442 4084 
Q 3081 4231 2675 4231 
Q 1875 4231 1450 3742 
Q 1025 3253 1025 2328 
Q 1025 1406 1450 917 
Q 1875 428 2675 428 
Q 3081 428 3442 575 
Q 3803 722 4122 1019 
L 4122 359 
Q 3791 134 3420 21 
Q 3050 -91 2638 -91 
Q 1578 -91 968 557 
Q 359 1206 359 2328 
Q 359 3453 968 4101 
Q 1578 4750 2638 4750 
Q 3056 4750 3426 4639 
Q 3797 4528 4122 4306 
z
" transform="scale(0.015625)"/>
       <path id="DejaVuSans-4d" d="M 628 4666 
L 1569 4666 
L 2759 1491 
L 3956 4666 
L 4897 4666 
L 4897 0 
L 4281 0 
L 4281 4097 
L 3078 897 
L 2444 897 
L 1241 4097 
L 1241 0 
L 628 0 
L 628 4666 
z
" transform="scale(0.015625)"/>
       <path id="DejaVuSans-2d" d="M 313 2009 
L 1997 2009 
L 1997 1497 
L 313 1497 
L 313 2009 
z
" transform="scale(0.015625)"/>
      </defs>
      <use xlink:href="#DejaVuSans-43"/>
      <use xlink:href="#DejaVuSans-4d" transform="translate(69.824219 0)"/>
      <use xlink:href="#DejaVuSans-44" transform="translate(156.103516 0)"/>
      <use xlink:href="#DejaVuSans-41" transform="translate(231.355469 0)"/>
      <use xlink:href="#DejaVuSans-2d" transform="translate(297.513672 0)"/>
      <use xlink:href="#DejaVuSans-54" transform="translate(324.472656 0)"/>
      <use xlink:href="#DejaVuSans-69" transform="translate(382.431641 0)"/>
      <use xlink:href="#DejaVuSans-70" transform="translate(410.214844 0)"/>
      <use xlink:href="#DejaVuSans-73" transform="translate(473.691406 0)"/>
     </g>
    </g>
    <g id="line2d_32">
     <path d="M 26.8625 41.761719 
L 33.8625 41.761719 
L 40.8625 41.761719 
" style="fill: none; stroke-dasharray: 5.55,2.4; stroke-dashoffset: 0; stroke: #1f77b4; stroke-width: 1.5"/>
    </g>
    <g id="text_15">
     <!-- CMDA-Nodes -->
     <g transform="translate(46.4625 44.211719) scale(0.07 -0.07)">
      <use xlink:href="#DejaVuSans-43"/>
      <use xlink:href="#DejaVuSans-4d" transform="translate(69.824219 0)"/>
      <use xlink:href="#DejaVuSans-44" transform="translate(156.103516 0)"/>
      <use xlink:href="#DejaVuSans-41" transform="translate(231.355469 0)"/>
      <use xlink:href="#DejaVuSans-2d" transform="translate(297.513672 0)"/>
      <use xlink:href="#DejaVuSans-4e" transform="translate(333.597656 0)"/>
      <use xlink:href="#DejaVuSans-6f" transform="translate(408.402344 0)"/>
      <use xlink:href="#DejaVuSans-64" transform="translate(469.583984 0)"/>
      <use xlink:href="#DejaVuSans-65" transform="translate(533.060547 0)"/>
      <use xlink:href="#DejaVuSans-73" transform="translate(594.583984 0)"/>
     </g>
    </g>
    <g id="line2d_33">
     <path d="M 26.8625 52.036406 
L 33.8625 52.036406 
L 40.8625 52.036406 
" style="fill: none; stroke: #ff7f0e; stroke-width: 2; stroke-linecap: square"/>
    </g>
    <g id="text_16">
     <!-- FIXED-Tips -->
     <g transform="translate(46.4625 54.486406) scale(0.07 -0.07)">
      <defs>
       <path id="DejaVuSans-46" d="M 628 4666 
L 3309 4666 
L 3309 4134 
L 1259 4134 
L 1259 2759 
L 3109 2759 
L 3109 2228 
L 1259 2228 
L 1259 0 
L 628 0 
L 628 4666 
z
" transform="scale(0.015625)"/>
       <path id="DejaVuSans-49" d="M 628 4666 
L 1259 4666 
L 1259 0 
L 628 0 
L 628 4666 
z
" transform="scale(0.015625)"/>
       <path id="DejaVuSans-58" d="M 403 4666 
L 1081 4666 
L 2241 2931 
L 3406 4666 
L 4084 4666 
L 2584 2425 
L 4184 0 
L 3506 0 
L 2194 1984 
L 872 0 
L 191 0 
L 1856 2491 
L 403 4666 
z
" transform="scale(0.015625)"/>
       <path id="DejaVuSans-45" d="M 628 4666 
L 3578 4666 
L 3578 4134 
L 1259 4134 
L 1259 2753 
L 3481 2753 
L 3481 2222 
L 1259 2222 
L 1259 531 
L 3634 531 
L 3634 0 
L 628 0 
L 628 4666 
z
" transform="scale(0.015625)"/>
      </defs>
      <use xlink:href="#DejaVuSans-46"/>
      <use xlink:href="#DejaVuSans-49" transform="translate(57.519531 0)"/>
      <use xlink:href="#DejaVuSans-58" transform="translate(87.011719 0)"/>
      <use xlink:href="#DejaVuSans-45" transform="translate(155.517578 0)"/>
      <use xlink:href="#DejaVuSans-44" transform="translate(218.701172 0)"/>
      <use xlink:href="#DejaVuSans-2d" transform="translate(295.703125 0)"/>
      <use xlink:href="#DejaVuSans-54" transform="translate(322.662109 0)"/>
      <use xlink:href="#DejaVuSans-69" transform="translate(380.621094 0)"/>
      <use xlink:href="#DejaVuSans-70" transform="translate(408.404297 0)"/>
      <use xlink:href="#DejaVuSans-73" transform="translate(471.880859 0)"/>
     </g>
    </g>
    <g id="line2d_34">
     <path d="M 26.8625 62.311094 
L 33.8625 62.311094 
L 40.8625 62.311094 
" style="fill: none; stroke-dasharray: 5.55,2.4; stroke-dashoffset: 0; stroke: #ff7f0e; stroke-width: 1.5"/>
    </g>
    <g id="text_17">
     <!-- FIXED-Nodes -->
     <g transform="translate(46.4625 64.761094) scale(0.07 -0.07)">
      <use xlink:href="#DejaVuSans-46"/>
      <use xlink:href="#DejaVuSans-49" transform="translate(57.519531 0)"/>
      <use xlink:href="#DejaVuSans-58" transform="translate(87.011719 0)"/>
      <use xlink:href="#DejaVuSans-45" transform="translate(155.517578 0)"/>
      <use xlink:href="#DejaVuSans-44" transform="translate(218.701172 0)"/>
      <use xlink:href="#DejaVuSans-2d" transform="translate(295.703125 0)"/>
      <use xlink:href="#DejaVuSans-4e" transform="translate(331.787109 0)"/>
      <use xlink:href="#DejaVuSans-6f" transform="translate(406.591797 0)"/>
      <use xlink:href="#DejaVuSans-64" transform="translate(467.773438 0)"/>
      <use xlink:href="#DejaVuSans-65" transform="translate(531.25 0)"/>
      <use xlink:href="#DejaVuSans-73" transform="translate(592.773438 0)"/>
     </g>
    </g>
    <g id="line2d_35">
     <path d="M 26.8625 72.585781 
L 33.8625 72.585781 
L 40.8625 72.585781 
" style="fill: none; stroke: #2ca02c; stroke-width: 2; stroke-linecap: square"/>
    </g>
    <g id="text_18">
     <!-- LOWCMDA-Tips -->
     <g transform="translate(46.4625 75.035781) scale(0.07 -0.07)">
      <defs>
       <path id="DejaVuSans-4c" d="M 628 4666 
L 1259 4666 
L 1259 531 
L 3531 531 
L 3531 0 
L 628 0 
L 628 4666 
z
" transform="scale(0.015625)"/>
       <path id="DejaVuSans-4f" d="M 2522 4238 
Q 1834 4238 1429 3725 
Q 1025 3213 1025 2328 
Q 1025 1447 1429 934 
Q 1834 422 2522 422 
Q 3209 422 3611 934 
Q 4013 1447 4013 2328 
Q 4013 3213 3611 3725 
Q 3209 4238 2522 4238 
z
M 2522 4750 
Q 3503 4750 4090 4092 
Q 4678 3434 4678 2328 
Q 4678 1225 4090 567 
Q 3503 -91 2522 -91 
Q 1538 -91 948 565 
Q 359 1222 359 2328 
Q 359 3434 948 4092 
Q 1538 4750 2522 4750 
z
" transform="scale(0.015625)"/>
       <path id="DejaVuSans-57" d="M 213 4666 
L 850 4666 
L 1831 722 
L 2809 4666 
L 3519 4666 
L 4500 722 
L 5478 4666 
L 6119 4666 
L 4947 0 
L 4153 0 
L 3169 4050 
L 2175 0 
L 1381 0 
L 213 4666 
z
" transform="scale(0.015625)"/>
      </defs>
      <use xlink:href="#DejaVuSans-4c"/>
      <use xlink:href="#DejaVuSans-4f" transform="translate(52.087891 0)"/>
      <use xlink:href="#DejaVuSans-57" transform="translate(130.798828 0)"/>
      <use xlink:href="#DejaVuSans-43" transform="translate(229.675781 0)"/>
      <use xlink:href="#DejaVuSans-4d" transform="translate(299.5 0)"/>
      <use xlink:href="#DejaVuSans-44" transform="translate(385.779297 0)"/>
      <use xlink:href="#DejaVuSans-41" transform="translate(461.03125 0)"/>
      <use xlink:href="#DejaVuSans-2d" transform="translate(527.189453 0)"/>
      <use xlink:href="#DejaVuSans-54" transform="translate(554.148438 0)"/>
      <use xlink:href="#DejaVuSans-69" transform="translate(612.107422 0)"/>
      <use xlink:href="#DejaVuSans-70" transform="translate(639.890625 0)"/>
      <use xlink:href="#DejaVuSans-73" transform="translate(703.367188 0)"/>
     </g>
    </g>
    <g id="line2d_36">
     <path d="M 26.8625 82.860469 
L 33.8625 82.860469 
L 40.8625 82.860469 
" style="fill: none; stroke-dasharray: 5.55,2.4; stroke-dashoffset: 0; stroke: #2ca02c; stroke-width: 1.5"/>
    </g>
    <g id="text_19">
     <!-- LOWCMDA-Nodes -->
     <g transform="translate(46.4625 85.310469) scale(0.07 -0.07)">
      <use xlink:href="#DejaVuSans-4c"/>
      <use xlink:href="#DejaVuSans-4f" transform="translate(52.087891 0)"/>
      <use xlink:href="#DejaVuSans-57" transform="translate(130.798828 0)"/>
      <use xlink:href="#DejaVuSans-43" transform="translate(229.675781 0)"/>
      <use xlink:href="#DejaVuSans-4d" transform="translate(299.5 0)"/>
      <use xlink:href="#DejaVuSans-44" transform="translate(385.779297 0)"/>
      <use xlink:href="#DejaVuSans-41" transform="translate(461.03125 0)"/>
      <use xlink:href="#DejaVuSans-2d" transform="translate(527.189453 0)"/>
      <use xlink:href="#DejaVuSans-4e" transform="translate(563.273438 0)"/>
      <use xlink:href="#DejaVuSans-6f" transform="translate(638.078125 0)"/>
      <use xlink:href="#DejaVuSans-64" transform="translate(699.259766 0)"/>
      <use xlink:href="#DejaVuSans-65" transform="translate(762.736328 0)"/>
      <use xlink:href="#DejaVuSans-73" transform="translate(824.259766 0)"/>
     </g>
    </g>
   </g>
  </g>
 </g>
 <defs>
  <clipPath id="p10e6483b1a">
   <rect x="20.5625" y="22.318125" width="685.01" height="377.24"/>
  </clipPath>
 </defs>
</svg>
